<svg id="changeColor" fill="#DC7633" xmlns="http://www.w3.org/2000/svg" xmlns:xlink="http://www.w3.org/1999/xlink" width="200" zoomAndPan="magnify" viewBox="0 0 375 374.9999" height="200" version="1.0"><defs></defs><g id="inner-icon" transform="translate(85, 75)"> <svg width="199.8" height="199.8" viewBox="0 0 15 15" fill="none" xmlns="http://www.w3.org/2000/svg" id="IconChangeColor"> <path d="M7 0V2H8V0H7Z" fill="green" id="mainIconPathAttribute"></path> <path d="M3.35355 3.64645L1.85355 2.14645L1.14645 2.85355L2.64645 4.35355L3.35355 3.64645Z" fill="green" id="mainIconPathAttribute"></path> <path d="M12.3536 4.35355L13.8536 2.85355L13.1464 2.14645L11.6464 3.64645L12.3536 4.35355Z" fill="green" id="mainIconPathAttribute"></path> <path d="M7.49998 3C5.52977 3 3.85938 4.44872 3.58075 6.39913L3.5707 6.46949C3.41148 7.58398 3.73042 8.64543 4.36009 9.45895C4.74345 9.95426 5 10.427 5 10.9013V12.5C5 12.7761 5.22386 13 5.5 13H9.5C9.77614 13 10 12.7761 10 12.5V10.9013C10 10.427 10.2565 9.95423 10.6399 9.45893C11.2696 8.64541 11.5885 7.58397 11.4293 6.4695L11.4192 6.39914C11.1406 4.44873 9.4702 3 7.49998 3Z" fill="green" id="mainIconPathAttribute"></path> <path d="M0 8H2V7H0V8Z" fill="green" id="mainIconPathAttribute"></path> <path d="M13 8H15V7H13V8Z" fill="green" id="mainIconPathAttribute"></path> <path d="M6 15H9V14H6V15Z" fill="green" id="mainIconPathAttribute"></path> </svg> </g></svg>